# xmcd
#
# Track frame offsets: 
#        150
#        18375
#        34950
#        48600
#        69525
#        87150
#        103350
#        115425
#        127275
#        146475
#        161625
#        178875
#        193575
#
# Disc length: 2780 seconds
#
# Revision: 0
# Processed by: cddbd v1.5.2PL0 Copyright (c) Steve Scherf et al.
# Submitted via: ExactAudioCopy v1.0b3
#
DISCID=c80ada0d
DTITLE=Aleyce Simmonds - More Than Meets the Eye
DYEAR=2017
DGENRE=Country
TTITLE0=Defeated
TTITLE1=Rejected
TTITLE2=Stop the World
TTITLE3=Just Like the First Time
TTITLE4=Learn to Sleep
TTITLE5=Anchor
TTITLE6=Only On My Terms
TTITLE7=Last Word On My Lips
TTITLE8=Some Things Never Change
TTITLE9=More Than Meets the Eye
TTITLE10=As Above, So Below (Ft. Shane Nicholson)
TTITLE11=Whiskey Talking
TTITLE12=You Come Back
EXTD=
EXTT0=
EXTT1=
EXTT2=
EXTT3=
EXTT4=
EXTT5=
EXTT6=
EXTT7=
EXTT8=
EXTT9=
EXTT10=
EXTT11=
EXTT12=
PLAYORDER=
